<svg xmlns="http://www.w3.org/2000/svg" width="512" height="512" viewBox="0 0 512 512" id="dollar">
  <defs>
    <linearGradient id="a" x1=".5" x2=".5" y2="1" gradientUnits="objectBoundingBox">
      <stop offset="0" stop-color="#ffb508"></stop>
      <stop offset="1" stop-color="#fc2a02"></stop>
    </linearGradient>
  </defs>
  <g transform="translate(-13015 -765)">
    <circle cx="256" cy="256" r="256" fill="url(#a)" transform="translate(13015 765)"></circle>
    <path fill="#fff" d="M392.2,661.295c-11.256-6.22-23.222-10.959-35.07-15.876a78.726,78.726,0,0,1-19.253-10.782c-11.433-9.123-9.241-23.933,4.147-29.8a33.818,33.818,0,0,1,11.789-2.429,89.477,89.477,0,0,1,44.311,8.768c6.99,3.377,9.3,2.31,11.67-4.976,2.488-7.7,4.561-15.521,6.872-23.281,1.54-5.213-.355-8.649-5.272-10.841a112.64,112.64,0,0,0-27.961-8.353c-12.677-1.955-12.677-2.014-12.737-14.751-.06-17.948-.06-17.948-18.069-17.948-2.607,0-5.213-.059-7.82,0-8.412.237-9.834,1.718-10.071,10.189-.118,3.791,0,7.583-.059,11.433-.059,11.256-.118,11.078-10.9,14.988-26.066,9.478-42.179,27.25-43.9,55.686-1.54,25.177,11.611,42.179,32.286,54.56,12.737,7.642,26.836,12.144,40.342,18.127a59.928,59.928,0,0,1,14.692,8.649c12.974,10.722,10.6,28.554-4.8,35.307a48.317,48.317,0,0,1-25.888,3.377,115.556,115.556,0,0,1-39.454-11.789c-7.287-3.791-9.419-2.784-11.907,5.1-2.133,6.813-4.028,13.684-5.924,20.556-2.547,9.241-1.6,11.433,7.227,15.758,11.256,5.45,23.281,8.234,35.544,10.189,9.6,1.54,9.893,1.955,10.012,11.907.059,4.5.059,9.064.118,13.566.059,5.687,2.784,9,8.649,9.123,6.635.118,13.329.118,19.964-.059,5.45-.118,8.234-3.08,8.234-8.59,0-6.161.3-12.381.059-18.542-.3-6.279,2.429-9.478,8.471-11.137A66.948,66.948,0,0,0,412.4,757.026C437.757,726.222,428.1,681.14,392.2,661.295Z" transform="translate(12919.005 347)"></path>
  </g>
</svg>
