<svg xmlns="http://www.w3.org/2000/svg" xmlns:xlink="http://www.w3.org/1999/xlink" viewBox="0 0 512 512" id="pound-coin">
  <defs>
    <linearGradient id="a" x1="256.183" x2="256.183" y1="15.879" y2="486.936" gradientUnits="userSpaceOnUse">
      <stop offset="0" stop-color="#00efd1"></stop>
      <stop offset="1" stop-color="#00acea"></stop>
    </linearGradient>
    <linearGradient xlink:href="#a" id="b" x1="256" x2="256" y1="15.879" y2="486.936"></linearGradient>
  </defs>
  <g>
    <path fill="url(#a)" d="M310.744,309.691l-8.205,2.545a36.94,36.94,0,0,1-27.831-2.484,57.51,57.51,0,0,0-25.9-6.245,61.241,61.241,0,0,0-6.875.437l-1.909.229A67.042,67.042,0,0,0,246.759,280l.01-.068c.03-.215.053-.486.07-.7.337-4.418.483-8.234.473-13.234h29.54a10,10,0,0,0,0-20H246.081a170.524,170.524,0,0,0-3.445-18.945,87.785,87.785,0,0,1-2.753-19.66,27.406,27.406,0,0,1,1.936-10.225,26.3,26.3,0,0,1,5.511-8.594,25.639,25.639,0,0,1,8.635-5.821,28.908,28.908,0,0,1,11.243-2.084c14.72,0,23.2,6.3,25.923,19.268a10,10,0,1,0,19.572-4.111c-4.692-22.342-21.275-35.156-45.495-35.156a48.817,48.817,0,0,0-19.045,3.67,45.792,45.792,0,0,0-15.244,10.372,46.475,46.475,0,0,0-9.662,15.025,47.419,47.419,0,0,0-3.374,17.684,105.818,105.818,0,0,0,3.309,24.318c1.177,4.814,2.085,10.259,2.736,14.259H198.657a10,10,0,0,0,0,20h28.659c.011,4-.112,7.587-.4,11.392l0,.066c-.029.2-.052.425-.068.632a47.067,47.067,0,0,1-8.9,24.046l-6.307,8.657a10,10,0,0,0,9.274,15.822l23.319-2.8a41.431,41.431,0,0,1,4.576-.3,37.363,37.363,0,0,1,16.816,4.063,56.863,56.863,0,0,0,42.812,3.777l8.236-2.554a10,10,0,1,0-5.926-19.1Z"></path>
    <path fill="url(#b)" d="M256,28.263A227.85,227.85,0,0,0,94.886,417.227,227.85,227.85,0,1,0,417.114,95,226.354,226.354,0,0,0,256,28.263Zm0,435.7c-114.608,0-207.85-93.241-207.85-207.849S141.392,48.263,256,48.263,463.85,141.5,463.85,256.113,370.608,463.962,256,463.962Z"></path>
    <path fill="url(#b)" d="M256,81.7c-96.174,0-174.417,78.243-174.417,174.417S159.826,430.53,256,430.53s174.417-78.243,174.417-174.417S352.174,81.7,256,81.7Zm0,328.834c-85.146,0-154.417-69.272-154.417-154.417S170.854,101.7,256,101.7s154.417,69.271,154.417,154.417S341.146,410.53,256,410.53Z"></path>
  </g>
</svg>
