<svg width="480" height="81" viewBox="0 0 480 81" fill="none" xmlns="http://www.w3.org/2000/svg">
<path d="M24.064 64.896C21.12 64.896 18.5173 64.4907 16.256 63.68C13.9947 62.8267 12.0533 61.504 10.432 59.712C8.85333 57.92 7.65867 55.616 6.848 52.8C6.03733 49.984 5.632 46.6133 5.632 42.688V16.576H15.04V43.52C15.04 46.8053 15.4027 49.408 16.128 51.328C16.8533 53.248 17.8773 54.6347 19.2 55.488C20.5653 56.2987 22.1867 56.704 24.064 56.704C25.9413 56.704 27.5627 56.2987 28.928 55.488C30.2933 54.6347 31.3387 53.248 32.064 51.328C32.832 49.408 33.216 46.8053 33.216 43.52V16.576H42.304V42.688C42.304 46.6133 41.8987 49.984 41.088 52.8C40.2773 55.616 39.0827 57.92 37.504 59.712C35.9253 61.504 34.0053 62.8267 31.744 63.68C29.4827 64.4907 26.9227 64.896 24.064 64.896ZM52.931 64V28.16H60.611L61.315 34.496H61.507C62.8297 32.1493 64.387 30.3573 66.179 29.12C67.971 27.8827 69.8057 27.264 71.683 27.264C72.707 27.264 73.5177 27.3493 74.115 27.52C74.755 27.648 75.331 27.8187 75.843 28.032L74.307 36.16C73.6243 35.9893 73.0057 35.8613 72.451 35.776C71.939 35.648 71.2777 35.584 70.467 35.584C69.1017 35.584 67.651 36.1173 66.115 37.184C64.6217 38.2507 63.363 40.064 62.339 42.624V64H52.931ZM95.422 64.896C92.094 64.896 89.086 64.1493 86.398 62.656C83.71 61.1627 81.5553 59.008 79.934 56.192C78.3553 53.376 77.566 50.0053 77.566 46.08C77.566 43.1787 78.014 40.576 78.91 38.272C79.8487 35.968 81.1073 34.0053 82.686 32.384C84.3073 30.72 86.0993 29.4613 88.062 28.608C90.0673 27.712 92.1367 27.264 94.27 27.264C97.5553 27.264 100.307 28.0107 102.526 29.504C104.745 30.9547 106.409 32.9813 107.518 35.584C108.67 38.144 109.246 41.088 109.246 44.416C109.246 45.2693 109.203 46.1013 109.118 46.912C109.033 47.68 108.926 48.2987 108.798 48.768H86.718C86.974 50.688 87.55 52.3093 88.446 53.632C89.342 54.9547 90.494 55.9573 91.902 56.64C93.31 57.28 94.91 57.6 96.702 57.6C98.1527 57.6 99.518 57.408 100.798 57.024C102.078 56.5973 103.379 55.9787 104.702 55.168L107.902 60.928C106.153 62.1227 104.19 63.0827 102.014 63.808C99.838 64.5333 97.6407 64.896 95.422 64.896ZM86.526 42.432H101.182C101.182 40.0427 100.627 38.144 99.518 36.736C98.4513 35.2853 96.7447 34.56 94.398 34.56C93.1607 34.56 91.9873 34.8587 90.878 35.456C89.7687 36.0107 88.83 36.8853 88.062 38.08C87.294 39.232 86.782 40.6827 86.526 42.432ZM132.226 64.896C128.94 64.896 125.975 64.1493 123.33 62.656C120.684 61.1627 118.594 59.0293 117.058 56.256C115.522 53.44 114.754 50.048 114.754 46.08C114.754 42.112 115.586 38.7413 117.25 35.968C118.956 33.152 121.196 30.9973 123.97 29.504C126.786 28.0107 129.815 27.264 133.058 27.264C135.276 27.264 137.239 27.648 138.946 28.416C140.652 29.1413 142.167 30.1013 143.49 31.296L139.01 37.248C138.156 36.48 137.282 35.904 136.386 35.52C135.49 35.136 134.551 34.944 133.57 34.944C131.735 34.944 130.114 35.4133 128.706 36.352C127.34 37.248 126.274 38.528 125.506 40.192C124.78 41.856 124.418 43.8187 124.418 46.08C124.418 48.3413 124.78 50.304 125.506 51.968C126.274 53.632 127.319 54.9333 128.642 55.872C130.007 56.768 131.543 57.216 133.25 57.216C134.53 57.216 135.767 56.9387 136.962 56.384C138.156 55.8293 139.244 55.1467 140.226 54.336L143.938 60.544C142.231 62.0373 140.332 63.1467 138.242 63.872C136.194 64.5547 134.188 64.896 132.226 64.896ZM158.449 64.896C156.358 64.896 154.502 64.448 152.881 63.552C151.302 62.6133 150.065 61.3333 149.169 59.712C148.316 58.0907 147.889 56.256 147.889 54.208C147.889 50.4107 149.532 47.4667 152.817 45.376C156.102 43.2427 161.329 41.792 168.497 41.024C168.454 39.8293 168.241 38.784 167.857 37.888C167.473 36.9493 166.833 36.2027 165.937 35.648C165.084 35.0933 163.91 34.816 162.417 34.816C160.753 34.816 159.11 35.136 157.489 35.776C155.868 36.416 154.225 37.248 152.561 38.272L149.233 32C150.641 31.104 152.134 30.3147 153.713 29.632C155.292 28.9493 156.956 28.3947 158.705 27.968C160.454 27.4987 162.268 27.264 164.145 27.264C167.174 27.264 169.713 27.8613 171.761 29.056C173.809 30.2507 175.345 32.0213 176.369 34.368C177.393 36.7147 177.905 39.616 177.905 43.072V64H170.225L169.585 60.16H169.265C167.729 61.5253 166.065 62.656 164.273 63.552C162.481 64.448 160.54 64.896 158.449 64.896ZM161.585 57.536C162.908 57.536 164.102 57.2373 165.169 56.64C166.278 56 167.388 55.1253 168.497 54.016V46.848C165.596 47.1893 163.292 47.68 161.585 48.32C159.878 48.96 158.662 49.728 157.937 50.624C157.212 51.4773 156.849 52.4373 156.849 53.504C156.849 54.912 157.276 55.936 158.129 56.576C159.025 57.216 160.177 57.536 161.585 57.536ZM238.239 64.896C235.423 64.896 233.14 64.3413 231.391 63.232C229.641 62.08 228.383 60.5013 227.615 58.496C226.847 56.4907 226.463 54.1653 226.463 51.52V35.584H221.407V28.608L226.975 28.16L228.062 18.496H235.807V28.16H244.703V35.584H235.807V51.456C235.807 53.504 236.233 55.0187 237.087 56C237.94 56.9813 239.156 57.472 240.735 57.472C241.332 57.472 241.951 57.3867 242.591 57.216C243.231 57.0453 243.785 56.8747 244.255 56.704L245.855 63.552C244.873 63.8507 243.743 64.1493 242.463 64.448C241.225 64.7467 239.817 64.896 238.239 64.896ZM265.47 64.896C262.483 64.896 259.667 64.1493 257.022 62.656C254.419 61.1627 252.307 59.0293 250.686 56.256C249.064 53.44 248.254 50.048 248.254 46.08C248.254 42.112 249.064 38.7413 250.686 35.968C252.307 33.152 254.419 30.9973 257.022 29.504C259.667 28.0107 262.483 27.264 265.47 27.264C267.731 27.264 269.886 27.6907 271.934 28.544C273.982 29.3973 275.816 30.6347 277.438 32.256C279.059 33.8347 280.339 35.7973 281.278 38.144C282.216 40.448 282.686 43.0933 282.686 46.08C282.686 50.048 281.875 53.44 280.254 56.256C278.632 59.0293 276.499 61.1627 273.854 62.656C271.251 64.1493 268.456 64.896 265.47 64.896ZM265.47 57.216C267.091 57.216 268.456 56.768 269.566 55.872C270.718 54.9333 271.571 53.632 272.126 51.968C272.723 50.304 273.022 48.3413 273.022 46.08C273.022 43.8187 272.723 41.856 272.126 40.192C271.571 38.528 270.718 37.248 269.566 36.352C268.456 35.4133 267.091 34.944 265.47 34.944C263.848 34.944 262.462 35.4133 261.31 36.352C260.2 37.248 259.347 38.528 258.75 40.192C258.195 41.856 257.918 43.8187 257.918 46.08C257.918 48.3413 258.195 50.304 258.75 51.968C259.347 53.632 260.2 54.9333 261.31 55.872C262.462 56.768 263.848 57.216 265.47 57.216ZM305.788 64.896C302.503 64.896 299.537 64.1493 296.892 62.656C294.247 61.1627 292.156 59.0293 290.62 56.256C289.084 53.44 288.316 50.048 288.316 46.08C288.316 42.112 289.148 38.7413 290.812 35.968C292.519 33.152 294.759 30.9973 297.532 29.504C300.348 28.0107 303.377 27.264 306.62 27.264C308.839 27.264 310.801 27.648 312.508 28.416C314.215 29.1413 315.729 30.1013 317.052 31.296L312.572 37.248C311.719 36.48 310.844 35.904 309.948 35.52C309.052 35.136 308.113 34.944 307.132 34.944C305.297 34.944 303.676 35.4133 302.268 36.352C300.903 37.248 299.836 38.528 299.068 40.192C298.343 41.856 297.98 43.8187 297.98 46.08C297.98 48.3413 298.343 50.304 299.068 51.968C299.836 53.632 300.881 54.9333 302.204 55.872C303.569 56.768 305.105 57.216 306.812 57.216C308.092 57.216 309.329 56.9387 310.524 56.384C311.719 55.8293 312.807 55.1467 313.788 54.336L317.5 60.544C315.793 62.0373 313.895 63.1467 311.804 63.872C309.756 64.5547 307.751 64.896 305.788 64.896ZM324.306 64V12.928H333.586V43.52H333.842L346.066 28.16H356.37L344.082 42.944L357.522 64H347.282L338.578 49.088L333.586 54.912V64H324.306Z" fill="white"/>
<path d="M202.406 64.896C199.248 64.896 196.155 64.2987 193.126 63.104C190.096 61.9093 187.43 60.2027 185.126 57.984L190.566 51.456C192.23 53.0347 194.128 54.3147 196.262 55.296C198.438 56.2347 200.55 56.704 202.598 56.704C205.072 56.704 206.95 56.2133 208.23 55.232C209.51 54.2507 210.15 52.928 210.15 51.264C210.15 50.0693 209.83 49.1307 209.19 48.448C208.592 47.7227 207.76 47.0827 206.694 46.528C205.627 45.9733 204.39 45.4187 202.982 44.864L196.71 42.112C195.131 41.472 193.595 40.6187 192.102 39.552C190.651 38.4427 189.435 37.056 188.454 35.392C187.515 33.728 187.046 31.744 187.046 29.44C187.046 26.8373 187.75 24.512 189.158 22.464C190.566 20.416 192.507 18.7947 194.982 17.6C197.456 16.3627 200.272 15.744 203.43 15.744C206.246 15.744 208.955 16.2773 211.558 17.344C214.16 18.4107 216.422 19.9253 218.342 21.888L213.542 27.776C212.048 26.5387 210.491 25.5787 208.87 24.896C207.248 24.2133 205.435 23.872 203.43 23.872C201.382 23.872 199.739 24.32 198.502 25.216C197.307 26.0693 196.71 27.2853 196.71 28.864C196.71 29.9733 197.051 30.8907 197.734 31.616C198.416 32.3413 199.312 32.9813 200.422 33.536C201.531 34.048 202.747 34.5813 204.07 35.136L210.278 37.632C212.198 38.4 213.862 39.36 215.27 40.512C216.72 41.664 217.83 43.0507 218.597 44.672C219.408 46.2933 219.814 48.256 219.814 50.56C219.814 53.12 219.11 55.488 217.701 57.664C216.336 59.84 214.352 61.5893 211.75 62.912C209.19 64.2347 206.075 64.896 202.406 64.896Z" fill="#F4A41D"/>
<path d="M376.672 64.624C375.808 64.624 375.056 64.32 374.416 63.712C373.808 63.072 373.504 62.272 373.504 61.312C373.504 60.288 373.808 59.472 374.416 58.864C375.056 58.256 375.808 57.952 376.672 57.952C377.536 57.952 378.272 58.256 378.88 58.864C379.52 59.472 379.84 60.288 379.84 61.312C379.84 62.272 379.52 63.072 378.88 63.712C378.272 64.32 377.536 64.624 376.672 64.624ZM397.297 64.624C394.993 64.624 392.913 64.096 391.057 63.04C389.233 61.952 387.777 60.4 386.689 58.384C385.633 56.336 385.105 53.872 385.105 50.992C385.105 48.08 385.681 45.616 386.833 43.6C387.985 41.552 389.521 39.984 391.441 38.896C393.361 37.808 395.425 37.264 397.633 37.264C399.329 37.264 400.785 37.568 402.001 38.176C403.249 38.784 404.321 39.504 405.217 40.336L403.009 43.216C402.273 42.544 401.473 42 400.609 41.584C399.777 41.168 398.849 40.96 397.825 40.96C396.257 40.96 394.849 41.376 393.601 42.208C392.353 43.04 391.377 44.208 390.673 45.712C389.969 47.216 389.617 48.976 389.617 50.992C389.617 52.976 389.953 54.72 390.625 56.224C391.329 57.728 392.273 58.896 393.457 59.728C394.673 60.56 396.081 60.976 397.681 60.976C398.897 60.976 400.017 60.736 401.041 60.256C402.065 59.744 402.993 59.12 403.825 58.384L405.745 61.36C404.561 62.384 403.249 63.184 401.809 63.76C400.369 64.336 398.865 64.624 397.297 64.624ZM420.357 64.624C418.245 64.624 416.261 64.096 414.405 63.04C412.549 61.952 411.061 60.4 409.941 58.384C408.853 56.336 408.309 53.872 408.309 50.992C408.309 48.08 408.853 45.616 409.941 43.6C411.061 41.552 412.549 39.984 414.405 38.896C416.261 37.808 418.245 37.264 420.357 37.264C421.957 37.264 423.477 37.568 424.917 38.176C426.389 38.784 427.685 39.68 428.805 40.864C429.925 42.048 430.805 43.488 431.445 45.184C432.085 46.88 432.405 48.816 432.405 50.992C432.405 53.872 431.845 56.336 430.725 58.384C429.605 60.4 428.133 61.952 426.309 63.04C424.485 64.096 422.501 64.624 420.357 64.624ZM420.357 60.976C421.861 60.976 423.173 60.56 424.293 59.728C425.445 58.896 426.341 57.728 426.981 56.224C427.621 54.72 427.941 52.976 427.941 50.992C427.941 48.976 427.621 47.216 426.981 45.712C426.341 44.208 425.445 43.04 424.293 42.208C423.173 41.376 421.861 40.96 420.357 40.96C418.853 40.96 417.525 41.376 416.373 42.208C415.253 43.04 414.373 44.208 413.733 45.712C413.125 47.216 412.821 48.976 412.821 50.992C412.821 52.976 413.125 54.72 413.733 56.224C414.373 57.728 415.253 58.896 416.373 59.728C417.525 60.56 418.853 60.976 420.357 60.976ZM439.338 64V37.936H442.938L443.37 41.728H443.466C444.618 40.48 445.866 39.424 447.21 38.56C448.586 37.696 450.042 37.264 451.578 37.264C453.594 37.264 455.162 37.712 456.282 38.608C457.402 39.504 458.234 40.72 458.778 42.256C460.154 40.784 461.53 39.584 462.906 38.656C464.314 37.728 465.818 37.264 467.418 37.264C470.074 37.264 472.042 38.144 473.322 39.904C474.634 41.632 475.29 44.16 475.29 47.488V64H470.922V48.064C470.922 45.6 470.522 43.824 469.722 42.736C468.954 41.648 467.738 41.104 466.074 41.104C465.082 41.104 464.042 41.44 462.954 42.112C461.898 42.752 460.746 43.744 459.498 45.088V64H455.13V48.064C455.13 45.6 454.73 43.824 453.93 42.736C453.162 41.648 451.946 41.104 450.282 41.104C449.29 41.104 448.25 41.44 447.162 42.112C446.074 42.752 444.938 43.744 443.754 45.088V64H439.338Z" fill="white"/>
</svg>
