<svg width="480" height="81" viewBox="0 0 480 81" fill="none" xmlns="http://www.w3.org/2000/svg">
<path d="M24.064 64.896C21.12 64.896 18.5173 64.4907 16.256 63.68C13.9947 62.8267 12.0533 61.504 10.432 59.712C8.85333 57.92 7.65867 55.616 6.848 52.8C6.03733 49.984 5.632 46.6133 5.632 42.688V16.576H15.04V43.52C15.04 46.8053 15.4027 49.408 16.128 51.328C16.8533 53.248 17.8773 54.6347 19.2 55.488C20.5653 56.2987 22.1867 56.704 24.064 56.704C25.9413 56.704 27.5627 56.2987 28.928 55.488C30.2933 54.6347 31.3387 53.248 32.064 51.328C32.832 49.408 33.216 46.8053 33.216 43.52V16.576H42.304V42.688C42.304 46.6133 41.8987 49.984 41.088 52.8C40.2773 55.616 39.0827 57.92 37.504 59.712C35.9253 61.504 34.0053 62.8267 31.744 63.68C29.4827 64.4907 26.9227 64.896 24.064 64.896ZM52.931 64V28.16H60.611L61.315 34.496H61.507C62.8297 32.1493 64.387 30.3573 66.179 29.12C67.971 27.8827 69.8057 27.264 71.683 27.264C72.707 27.264 73.5177 27.3493 74.115 27.52C74.755 27.648 75.331 27.8187 75.843 28.032L74.307 36.16C73.6243 35.9893 73.0057 35.8613 72.451 35.776C71.939 35.648 71.2777 35.584 70.467 35.584C69.1017 35.584 67.651 36.1173 66.115 37.184C64.6217 38.2507 63.363 40.064 62.339 42.624V64H52.931ZM95.422 64.896C92.094 64.896 89.086 64.1493 86.398 62.656C83.71 61.1627 81.5553 59.008 79.934 56.192C78.3553 53.376 77.566 50.0053 77.566 46.08C77.566 43.1787 78.014 40.576 78.91 38.272C79.8487 35.968 81.1073 34.0053 82.686 32.384C84.3073 30.72 86.0993 29.4613 88.062 28.608C90.0673 27.712 92.1367 27.264 94.27 27.264C97.5553 27.264 100.307 28.0107 102.526 29.504C104.745 30.9547 106.409 32.9813 107.518 35.584C108.67 38.144 109.246 41.088 109.246 44.416C109.246 45.2693 109.203 46.1013 109.118 46.912C109.033 47.68 108.926 48.2987 108.798 48.768H86.718C86.974 50.688 87.55 52.3093 88.446 53.632C89.342 54.9547 90.494 55.9573 91.902 56.64C93.31 57.28 94.91 57.6 96.702 57.6C98.1527 57.6 99.518 57.408 100.798 57.024C102.078 56.5973 103.379 55.9787 104.702 55.168L107.902 60.928C106.153 62.1227 104.19 63.0827 102.014 63.808C99.838 64.5333 97.6407 64.896 95.422 64.896ZM86.526 42.432H101.182C101.182 40.0427 100.627 38.144 99.518 36.736C98.4513 35.2853 96.7447 34.56 94.398 34.56C93.1607 34.56 91.9873 34.8587 90.878 35.456C89.7687 36.0107 88.83 36.8853 88.062 38.08C87.294 39.232 86.782 40.6827 86.526 42.432ZM116.994 64V12.928H126.274V43.52H126.53L138.754 28.16H149.058L136.77 42.944L150.21 64H139.97L131.266 49.088L126.274 54.912V64H116.994ZM163.324 64.896C161.233 64.896 159.377 64.448 157.756 63.552C156.177 62.6133 154.94 61.3333 154.044 59.712C153.191 58.0907 152.764 56.256 152.764 54.208C152.764 50.4107 154.407 47.4667 157.692 45.376C160.977 43.2427 166.204 41.792 173.372 41.024C173.329 39.8293 173.116 38.784 172.732 37.888C172.348 36.9493 171.708 36.2027 170.812 35.648C169.959 35.0933 168.785 34.816 167.292 34.816C165.628 34.816 163.985 35.136 162.364 35.776C160.743 36.416 159.1 37.248 157.436 38.272L154.108 32C155.516 31.104 157.009 30.3147 158.588 29.632C160.167 28.9493 161.831 28.3947 163.58 27.968C165.329 27.4987 167.143 27.264 169.02 27.264C172.049 27.264 174.588 27.8613 176.636 29.056C178.684 30.2507 180.22 32.0213 181.244 34.368C182.268 36.7147 182.78 39.616 182.78 43.072V64H175.1L174.46 60.16H174.14C172.604 61.5253 170.94 62.656 169.148 63.552C167.356 64.448 165.415 64.896 163.324 64.896ZM166.46 57.536C167.783 57.536 168.977 57.2373 170.044 56.64C171.153 56 172.263 55.1253 173.372 54.016V46.848C170.471 47.1893 168.167 47.68 166.46 48.32C164.753 48.96 163.537 49.728 162.812 50.624C162.087 51.4773 161.724 52.4373 161.724 53.504C161.724 54.912 162.151 55.936 163.004 56.576C163.9 57.216 165.052 57.536 166.46 57.536ZM243.114 64.896C240.298 64.896 238.015 64.3413 236.266 63.232C234.516 62.08 233.258 60.5013 232.49 58.496C231.722 56.4907 231.338 54.1653 231.338 51.52V35.584H226.282V28.608L231.85 28.16L232.938 18.496H240.682V28.16H249.578V35.584H240.682V51.456C240.682 53.504 241.108 55.0187 241.962 56C242.815 56.9813 244.031 57.472 245.61 57.472C246.207 57.472 246.826 57.3867 247.466 57.216C248.106 57.0453 248.66 56.8747 249.13 56.704L250.73 63.552C249.748 63.8507 248.618 64.1493 247.338 64.448C246.1 64.7467 244.692 64.896 243.114 64.896ZM270.345 64.896C267.358 64.896 264.542 64.1493 261.897 62.656C259.294 61.1627 257.182 59.0293 255.561 56.256C253.939 53.44 253.129 50.048 253.129 46.08C253.129 42.112 253.939 38.7413 255.561 35.968C257.182 33.152 259.294 30.9973 261.897 29.504C264.542 28.0107 267.358 27.264 270.345 27.264C272.606 27.264 274.761 27.6907 276.809 28.544C278.857 29.3973 280.691 30.6347 282.312 32.256C283.934 33.8347 285.214 35.7973 286.153 38.144C287.091 40.448 287.561 43.0933 287.561 46.08C287.561 50.048 286.75 53.44 285.129 56.256C283.507 59.0293 281.374 61.1627 278.729 62.656C276.126 64.1493 273.331 64.896 270.345 64.896ZM270.345 57.216C271.966 57.216 273.331 56.768 274.441 55.872C275.593 54.9333 276.446 53.632 277.001 51.968C277.598 50.304 277.897 48.3413 277.897 46.08C277.897 43.8187 277.598 41.856 277.001 40.192C276.446 38.528 275.593 37.248 274.441 36.352C273.331 35.4133 271.966 34.944 270.345 34.944C268.723 34.944 267.337 35.4133 266.185 36.352C265.075 37.248 264.222 38.528 263.625 40.192C263.07 41.856 262.793 43.8187 262.793 46.08C262.793 48.3413 263.07 50.304 263.625 51.968C264.222 53.632 265.075 54.9333 266.185 55.872C267.337 56.768 268.723 57.216 270.345 57.216ZM310.663 64.896C307.378 64.896 304.412 64.1493 301.767 62.656C299.122 61.1627 297.031 59.0293 295.495 56.256C293.959 53.44 293.191 50.048 293.191 46.08C293.191 42.112 294.023 38.7413 295.687 35.968C297.394 33.152 299.634 30.9973 302.407 29.504C305.223 28.0107 308.252 27.264 311.495 27.264C313.714 27.264 315.676 27.648 317.383 28.416C319.09 29.1413 320.604 30.1013 321.927 31.296L317.447 37.248C316.594 36.48 315.719 35.904 314.823 35.52C313.927 35.136 312.988 34.944 312.007 34.944C310.172 34.944 308.551 35.4133 307.143 36.352C305.778 37.248 304.711 38.528 303.943 40.192C303.218 41.856 302.855 43.8187 302.855 46.08C302.855 48.3413 303.218 50.304 303.943 51.968C304.711 53.632 305.756 54.9333 307.079 55.872C308.444 56.768 309.98 57.216 311.687 57.216C312.967 57.216 314.204 56.9387 315.399 56.384C316.594 55.8293 317.682 55.1467 318.663 54.336L322.375 60.544C320.668 62.0373 318.77 63.1467 316.679 63.872C314.631 64.5547 312.626 64.896 310.663 64.896ZM329.181 64V12.928H338.461V43.52H338.717L350.941 28.16H361.245L348.957 42.944L362.397 64H352.157L343.453 49.088L338.461 54.912V64H329.181Z" fill="white"/>
<path d="M207.281 64.896C204.123 64.896 201.03 64.2987 198.001 63.104C194.971 61.9093 192.305 60.2027 190.001 57.984L195.441 51.456C197.105 53.0347 199.003 54.3147 201.137 55.296C203.313 56.2347 205.425 56.704 207.473 56.704C209.947 56.704 211.825 56.2133 213.105 55.232C214.385 54.2507 215.025 52.928 215.025 51.264C215.025 50.0693 214.705 49.1307 214.065 48.448C213.467 47.7227 212.635 47.0827 211.569 46.528C210.502 45.9733 209.265 45.4187 207.857 44.864L201.585 42.112C200.006 41.472 198.47 40.6187 196.977 39.552C195.526 38.4427 194.31 37.056 193.329 35.392C192.39 33.728 191.921 31.744 191.921 29.44C191.921 26.8373 192.625 24.512 194.033 22.464C195.441 20.416 197.382 18.7947 199.857 17.6C202.331 16.3627 205.147 15.744 208.305 15.744C211.121 15.744 213.83 16.2773 216.433 17.344C219.035 18.4107 221.297 19.9253 223.217 21.888L218.417 27.776C216.923 26.5387 215.366 25.5787 213.745 24.896C212.123 24.2133 210.31 23.872 208.305 23.872C206.257 23.872 204.614 24.32 203.377 25.216C202.182 26.0693 201.585 27.2853 201.585 28.864C201.585 29.9733 201.926 30.8907 202.609 31.616C203.291 32.3413 204.187 32.9813 205.297 33.536C206.406 34.048 207.622 34.5813 208.945 35.136L215.153 37.632C217.073 38.4 218.737 39.36 220.145 40.512C221.595 41.664 222.705 43.0507 223.472 44.672C224.283 46.2933 224.689 48.256 224.689 50.56C224.689 53.12 223.985 55.488 222.576 57.664C221.211 59.84 219.227 61.5893 216.625 62.912C214.065 64.2347 210.95 64.896 207.281 64.896Z" fill="#F4A41D"/>
<path d="M376.672 64.624C375.808 64.624 375.056 64.32 374.416 63.712C373.808 63.072 373.504 62.272 373.504 61.312C373.504 60.288 373.808 59.472 374.416 58.864C375.056 58.256 375.808 57.952 376.672 57.952C377.536 57.952 378.272 58.256 378.88 58.864C379.52 59.472 379.84 60.288 379.84 61.312C379.84 62.272 379.52 63.072 378.88 63.712C378.272 64.32 377.536 64.624 376.672 64.624ZM397.297 64.624C394.993 64.624 392.913 64.096 391.057 63.04C389.233 61.952 387.777 60.4 386.689 58.384C385.633 56.336 385.105 53.872 385.105 50.992C385.105 48.08 385.681 45.616 386.833 43.6C387.985 41.552 389.521 39.984 391.441 38.896C393.361 37.808 395.425 37.264 397.633 37.264C399.329 37.264 400.785 37.568 402.001 38.176C403.249 38.784 404.321 39.504 405.217 40.336L403.009 43.216C402.273 42.544 401.473 42 400.609 41.584C399.777 41.168 398.849 40.96 397.825 40.96C396.257 40.96 394.849 41.376 393.601 42.208C392.353 43.04 391.377 44.208 390.673 45.712C389.969 47.216 389.617 48.976 389.617 50.992C389.617 52.976 389.953 54.72 390.625 56.224C391.329 57.728 392.273 58.896 393.457 59.728C394.673 60.56 396.081 60.976 397.681 60.976C398.897 60.976 400.017 60.736 401.041 60.256C402.065 59.744 402.993 59.12 403.825 58.384L405.745 61.36C404.561 62.384 403.249 63.184 401.809 63.76C400.369 64.336 398.865 64.624 397.297 64.624ZM420.357 64.624C418.245 64.624 416.261 64.096 414.405 63.04C412.549 61.952 411.061 60.4 409.941 58.384C408.853 56.336 408.309 53.872 408.309 50.992C408.309 48.08 408.853 45.616 409.941 43.6C411.061 41.552 412.549 39.984 414.405 38.896C416.261 37.808 418.245 37.264 420.357 37.264C421.957 37.264 423.477 37.568 424.917 38.176C426.389 38.784 427.685 39.68 428.805 40.864C429.925 42.048 430.805 43.488 431.445 45.184C432.085 46.88 432.405 48.816 432.405 50.992C432.405 53.872 431.845 56.336 430.725 58.384C429.605 60.4 428.133 61.952 426.309 63.04C424.485 64.096 422.501 64.624 420.357 64.624ZM420.357 60.976C421.861 60.976 423.173 60.56 424.293 59.728C425.445 58.896 426.341 57.728 426.981 56.224C427.621 54.72 427.941 52.976 427.941 50.992C427.941 48.976 427.621 47.216 426.981 45.712C426.341 44.208 425.445 43.04 424.293 42.208C423.173 41.376 421.861 40.96 420.357 40.96C418.853 40.96 417.525 41.376 416.373 42.208C415.253 43.04 414.373 44.208 413.733 45.712C413.125 47.216 412.821 48.976 412.821 50.992C412.821 52.976 413.125 54.72 413.733 56.224C414.373 57.728 415.253 58.896 416.373 59.728C417.525 60.56 418.853 60.976 420.357 60.976ZM439.338 64V37.936H442.938L443.37 41.728H443.466C444.618 40.48 445.866 39.424 447.21 38.56C448.586 37.696 450.042 37.264 451.578 37.264C453.594 37.264 455.162 37.712 456.282 38.608C457.402 39.504 458.234 40.72 458.778 42.256C460.154 40.784 461.53 39.584 462.906 38.656C464.314 37.728 465.818 37.264 467.418 37.264C470.074 37.264 472.042 38.144 473.322 39.904C474.634 41.632 475.29 44.16 475.29 47.488V64H470.922V48.064C470.922 45.6 470.522 43.824 469.722 42.736C468.954 41.648 467.738 41.104 466.074 41.104C465.082 41.104 464.042 41.44 462.954 42.112C461.898 42.752 460.746 43.744 459.498 45.088V64H455.13V48.064C455.13 45.6 454.73 43.824 453.93 42.736C453.162 41.648 451.946 41.104 450.282 41.104C449.29 41.104 448.25 41.44 447.162 42.112C446.074 42.752 444.938 43.744 443.754 45.088V64H439.338Z" fill="white"/>
</svg>
